PathFileType	4	(X/Y/Z)	 1.9Hzhigh3min.trc
DataRate	CameraRate	NumFrames	NumMarkers	Units	OrigDataRate	OrigDataStartFrame	OrigNumFrames
200	200	10	39	m	200	876	1000
Frame#	Time	C7			LSH			RSH			MAN			RASI			LASI			HIPR			HIPL			RPSI			LPSI			COX			RTHI1			RTHI2			RTHI3			RTHI4			RLKN			RMKN			RSHA1			RSHA2			RSHA3			RSHA4			RHEEL			RMET5			RMET1			RTOE			LTHI1			LTHI2			LTHI3			LTHI4			LLKN			LMKN			LSHA1			LSHA2			LSHA3			LSHA4			LHEEL			LMET5			LMET1			LTOE			
		X1	Y1	Z1	X2	Y2	Z2	X3	Y3	Z3	X4	Y4	Z4	X5	Y5	Z5	X6	Y6	Z6	X7	Y7	Z7	X8	Y8	Z8	X9	Y9	Z9	X10	Y10	Z10	X11	Y11	Z11	X12	Y12	Z12	X13	Y13	Z13	X14	Y14	Z14	X15	Y15	Z15	X16	Y16	Z16	X17	Y17	Z17	X18	Y18	Z18	X19	Y19	Z19	X20	Y20	Z20	X21	Y21	Z21	X22	Y22	Z22	X23	Y23	Z23	X24	Y24	Z24	X25	Y25	Z25	X26	Y26	Z26	X27	Y27	Z27	X28	Y28	Z28	X29	Y29	Z29	X30	Y30	Z30	X31	Y31	Z31	X32	Y32	Z32	X33	Y33	Z33	X34	Y34	Z34	X35	Y35	Z35	X36	Y36	Z36	X37	Y37	Z37	X38	Y38	Z38	X39	Y39	Z39	
876	4.3800	-0.000000	0.000000	-0.000000	-0.219152	1.388136	-0.713799	-0.221025	1.380040	-0.375745	-0.155871	1.345314	-0.543214	-0.139620	0.948781	-0.424418	-0.130482	0.951364	-0.645285	-0.196800	1.004500	-0.400819	-0.188251	0.998022	-0.679533	-0.295438	0.983702	-0.487681	-0.295692	0.983252	-0.594770	-0.297300	0.991220	-0.537266	-0.218636	0.741319	-0.375785	-0.195179	0.686501	-0.374561	-0.134563	0.709832	-0.366407	-0.152062	0.769131	-0.368447	-0.115686	0.451090	-0.404195	-0.109252	0.448799	-0.490318	-0.206462	0.378132	-0.366553	-0.228623	0.341093	-0.370892	-0.157261	0.354293	-0.384596	-0.174190	0.317565	-0.385418	-0.360633	0.126286	-0.429666	-0.234422	0.032590	-0.384059	-0.203501	0.037523	-0.454675	-0.178745	0.028198	-0.449647	-0.197195	0.740648	-0.717287	-0.166663	0.687023	-0.713798	-0.108567	0.714248	-0.706710	-0.130384	0.770845	-0.708886	-0.102849	0.457191	-0.686847	-0.106234	0.459508	-0.597533	-0.204189	0.347980	-0.724997	-0.224861	0.313119	-0.725175	-0.170267	0.288475	-0.706292	-0.155685	0.330206	-0.709283	-0.357024	0.114417	-0.685180	-0.219193	0.038249	-0.725888	-0.190785	0.036635	-0.658618	-0.167185	0.025466	-0.656399	
877	4.3850	-0.000000	0.000000	-0.000000	-0.219636	1.380340	-0.713871	-0.220903	1.371898	-0.375567	-0.155491	1.337001	-0.543221	-0.140108	0.941116	-0.424478	-0.131209	0.943751	-0.645675	-0.197379	0.996413	-0.400730	-0.188986	0.989958	-0.680041	-0.296424	0.975469	-0.487789	-0.296689	0.974877	-0.594741	-0.298081	0.982921	-0.537390	-0.218032	0.733446	-0.375755	-0.194237	0.678805	-0.374337	-0.133936	0.702629	-0.366287	-0.151626	0.761468	-0.368252	-0.113756	0.443878	-0.403747	-0.107347	0.441666	-0.489581	-0.204590	0.371701	-0.365335	-0.227396	0.335103	-0.369789	-0.156021	0.347371	-0.384425	-0.173464	0.310845	-0.385462	-0.363667	0.121654	-0.428687	-0.235408	0.031581	-0.382802	-0.203991	0.037537	-0.454368	-0.178731	0.028161	-0.449666	-0.196694	0.732190	-0.716688	-0.165795	0.678932	-0.713762	-0.107871	0.706540	-0.706883	-0.130090	0.762940	-0.709210	-0.100863	0.449600	-0.686893	-0.104039	0.451885	-0.597781	-0.203962	0.341944	-0.725642	-0.225364	0.307600	-0.725864	-0.171365	0.281866	-0.706601	-0.155954	0.323265	-0.709632	-0.359982	0.110848	-0.686551	-0.221075	0.037248	-0.726205	-0.192131	0.036895	-0.659080	-0.167755	0.025420	-0.656639	
878	4.3900	-0.000000	0.000000	-0.000000	-0.220197	1.372527	-0.713985	-0.220862	1.363750	-0.375323	-0.155089	1.328803	-0.543240	-0.140603	0.933587	-0.424439	-0.131907	0.936196	-0.646127	-0.197899	0.988207	-0.400628	-0.189921	0.981687	-0.680552	-0.297537	0.967180	-0.487826	-0.297715	0.966406	-0.595140	-0.298956	0.974599	-0.537592	-0.217495	0.725241	-0.375607	-0.193348	0.670858	-0.374205	-0.133196	0.695190	-0.365855	-0.151270	0.753986	-0.367867	-0.111820	0.437080	-0.403152	-0.105303	0.435011	-0.488921	-0.202532	0.365464	-0.364326	-0.225703	0.329185	-0.368783	-0.154415	0.340711	-0.384156	-0.172303	0.304485	-0.385277	-0.367032	0.117576	-0.427767	-0.236065	0.030501	-0.381637	-0.204334	0.037564	-0.454024	-0.178681	0.028107	-0.449647	-0.196115	0.723891	-0.716375	-0.164705	0.670833	-0.713841	-0.107011	0.698943	-0.707577	-0.129661	0.755209	-0.709551	-0.098879	0.441965	-0.687168	-0.101784	0.444311	-0.598269	-0.203761	0.336020	-0.726036	-0.225855	0.302215	-0.726440	-0.172453	0.275198	-0.707120	-0.156138	0.316388	-0.709940	-0.362825	0.106508	-0.688112	-0.222507	0.036011	-0.727248	-0.192776	0.037020	-0.659683	-0.167967	0.025451	-0.656749	
879	4.3950	-0.000000	0.000000	-0.000000	-0.220676	1.364726	-0.714173	-0.220931	1.355734	-0.374574	-0.154714	1.320518	-0.543278	-0.141169	0.925922	-0.424353	-0.132594	0.928541	-0.646692	-0.198502	0.979941	-0.400484	-0.190985	0.973239	-0.681069	-0.298708	0.958678	-0.487986	-0.298926	0.957609	-0.595133	-0.300000	0.966225	-0.537741	-0.217133	0.717499	-0.374990	-0.192571	0.663134	-0.373512	-0.132459	0.687604	-0.365030	-0.151154	0.746622	-0.367416	-0.109803	0.430583	-0.402428	-0.103632	0.428638	-0.488282	-0.200421	0.359590	-0.363571	-0.224054	0.323486	-0.367983	-0.152755	0.334492	-0.383956	-0.171031	0.298477	-0.385181	-0.369105	0.113652	-0.427506	-0.236737	0.029794	-0.380935	-0.204776	0.037539	-0.453798	-0.178747	0.028072	-0.449647	-0.195431	0.715523	-0.716233	-0.163565	0.662869	-0.714130	-0.106010	0.691398	-0.708469	-0.129121	0.747414	-0.710039	-0.097077	0.434374	-0.687438	-0.099591	0.436745	-0.598836	-0.203285	0.330556	-0.726305	-0.226081	0.297112	-0.726994	-0.173100	0.268944	-0.707963	-0.156038	0.309813	-0.710390	-0.365536	0.101684	-0.689248	-0.223340	0.034957	-0.728525	-0.193131	0.036998	-0.660347	-0.167979	0.025458	-0.656863	
880	4.4000	-0.000000	0.000000	-0.000000	-0.220912	1.356966	-0.714468	-0.221158	1.347794	-0.373711	-0.154344	1.312457	-0.543352	-0.141803	0.918423	-0.424307	-0.133300	0.920829	-0.647427	-0.199195	0.971591	-0.400258	-0.192059	0.964727	-0.681657	-0.300129	0.950093	-0.488088	-0.300020	0.948850	-0.595478	-0.301079	0.957763	-0.537923	-0.217175	0.709997	-0.374422	-0.192007	0.656161	-0.372842	-0.132190	0.680928	-0.364484	-0.151383	0.739819	-0.366934	-0.107810	0.424508	-0.401585	-0.102059	0.422444	-0.487704	-0.198446	0.354197	-0.362737	-0.222495	0.318324	-0.367135	-0.151276	0.328730	-0.383912	-0.169897	0.292841	-0.385134	-0.370933	0.110249	-0.427698	-0.237354	0.029241	-0.380517	-0.205208	0.037513	-0.453677	-0.178832	0.028082	-0.449624	-0.194750	0.707302	-0.716384	-0.162516	0.654843	-0.714590	-0.105107	0.683667	-0.709328	-0.128702	0.739683	-0.710791	-0.095263	0.427141	-0.687734	-0.097392	0.429364	-0.599562	-0.202683	0.325105	-0.726622	-0.225835	0.292019	-0.727490	-0.173163	0.263170	-0.708770	-0.155666	0.303910	-0.711078	-0.367868	0.097262	-0.690045	-0.223985	0.033732	-0.729737	-0.193373	0.037016	-0.660911	-0.167919	0.025553	-0.656937	
881	4.4050	-0.000000	0.000000	-0.000000	-0.220748	1.349277	-0.714902	-0.221392	1.339693	-0.373361	-0.153770	1.303822	-0.543592	-0.142581	0.911034	-0.424293	-0.134083	0.913201	-0.648150	-0.200119	0.963212	-0.399895	-0.193176	0.956198	-0.682325	-0.301591	0.941419	-0.488201	-0.301284	0.939913	-0.595462	-0.302358	0.949383	-0.538137	-0.217354	0.703379	-0.373869	-0.191790	0.649685	-0.372347	-0.132189	0.675200	-0.363795	-0.151954	0.733872	-0.366262	-0.105696	0.418729	-0.400772	-0.099857	0.416828	-0.487039	-0.196786	0.348803	-0.362178	-0.221240	0.313259	-0.366650	-0.149996	0.323323	-0.383606	-0.168924	0.287537	-0.385097	-0.372621	0.106995	-0.428493	-0.238015	0.028810	-0.380287	-0.205553	0.037480	-0.453636	-0.178844	0.028055	-0.449660	-0.194181	0.699127	-0.716885	-0.161669	0.646774	-0.715264	-0.104369	0.676007	-0.710171	-0.128274	0.731807	-0.711504	-0.093444	0.420473	-0.688262	-0.095224	0.422421	-0.600297	-0.201721	0.319974	-0.727057	-0.225164	0.286897	-0.727805	-0.172573	0.257760	-0.709315	-0.154873	0.298308	-0.711726	-0.369790	0.093335	-0.690713	-0.224659	0.032770	-0.730617	-0.193587	0.037009	-0.661406	-0.167883	0.025575	-0.657066	
882	4.4100	-0.000000	0.000000	-0.000000	-0.221218	1.341820	-0.715427	-0.221563	1.331820	-0.373048	-0.153203	1.295611	-0.543781	-0.143228	0.903853	-0.423847	-0.134872	0.905697	-0.648984	-0.201267	0.954941	-0.399476	-0.194544	0.947571	-0.682901	-0.303106	0.932927	-0.488473	-0.302520	0.931129	-0.595743	-0.303755	0.941072	-0.538378	-0.217712	0.697648	-0.373535	-0.191769	0.644020	-0.371794	-0.132386	0.669809	-0.363141	-0.152439	0.728503	-0.365790	-0.103612	0.413286	-0.399900	-0.097550	0.411545	-0.486194	-0.195119	0.343907	-0.361388	-0.219904	0.308655	-0.366191	-0.148620	0.318043	-0.383282	-0.167905	0.282482	-0.385030	-0.374058	0.103816	-0.429772	-0.238605	0.028545	-0.380318	-0.205783	0.037393	-0.453645	-0.178778	0.028015	-0.449697	-0.193842	0.691074	-0.717575	-0.161039	0.638913	-0.715957	-0.103941	0.668329	-0.710845	-0.127997	0.723981	-0.712103	-0.091705	0.414396	-0.688791	-0.093092	0.415896	-0.600949	-0.200413	0.315023	-0.727404	-0.223999	0.282024	-0.728057	-0.171677	0.252571	-0.709536	-0.153667	0.293006	-0.711994	-0.371500	0.089796	-0.690943	-0.225285	0.032102	-0.731149	-0.193800	0.037044	-0.661645	-0.167915	0.025546	-0.657144	
883	4.4150	-0.000000	0.000000	-0.000000	-0.221587	1.334712	-0.716016	-0.221489	1.324329	-0.372741	-0.152921	1.287829	-0.543946	-0.144012	0.896840	-0.423561	-0.135712	0.898407	-0.649787	-0.202546	0.946771	-0.399037	-0.195801	0.939083	-0.683643	-0.304601	0.924568	-0.488583	-0.303815	0.922577	-0.595802	-0.305108	0.933177	-0.538461	-0.217906	0.692285	-0.373350	-0.191606	0.638964	-0.371399	-0.132440	0.665231	-0.362462	-0.152956	0.723653	-0.365291	-0.101659	0.408286	-0.399010	-0.094737	0.406663	-0.485265	-0.193536	0.339278	-0.360888	-0.218627	0.304213	-0.366206	-0.147246	0.313070	-0.382976	-0.166829	0.277901	-0.384976	-0.375273	0.101210	-0.431627	-0.239172	0.028432	-0.380532	-0.205886	0.037332	-0.453716	-0.178667	0.027927	-0.449709	-0.193671	0.683446	-0.718191	-0.160769	0.631381	-0.716540	-0.103761	0.660906	-0.711631	-0.127910	0.716534	-0.712868	-0.089932	0.408790	-0.689237	-0.090802	0.410139	-0.601660	-0.198832	0.310104	-0.727655	-0.222597	0.277300	-0.728343	-0.170506	0.247620	-0.709318	-0.152334	0.288019	-0.711792	-0.373026	0.086561	-0.690732	-0.225727	0.031689	-0.731312	-0.194018	0.037022	-0.661790	-0.167940	0.025561	-0.657231	
884	4.4200	-0.000000	0.000000	-0.000000	-0.222138	1.327891	-0.716680	-0.223056	1.316237	-0.371880	-0.153176	1.280353	-0.544239	-0.144785	0.890371	-0.423204	-0.136588	0.891390	-0.650638	-0.203985	0.938801	-0.398593	-0.197092	0.930842	-0.684427	-0.305828	0.916768	-0.489266	-0.304901	0.914442	-0.595966	-0.305821	0.926386	-0.538686	-0.218056	0.687400	-0.373440	-0.191305	0.634337	-0.371237	-0.132509	0.661331	-0.362140	-0.153419	0.719226	-0.364878	-0.099734	0.403787	-0.398107	-0.091668	0.402453	-0.484142	-0.192166	0.335174	-0.360953	-0.217580	0.300457	-0.366525	-0.145992	0.308680	-0.383038	-0.165901	0.273750	-0.385296	-0.376571	0.099175	-0.434224	-0.239882	0.028364	-0.380836	-0.205916	0.037228	-0.453838	-0.178477	0.027914	-0.449689	-0.193852	0.676943	-0.718630	-0.161004	0.624810	-0.716945	-0.103834	0.654399	-0.712426	-0.128025	0.710010	-0.713784	-0.088158	0.403690	-0.689763	-0.088435	0.405253	-0.602366	-0.197363	0.305334	-0.727810	-0.221148	0.272693	-0.728398	-0.169404	0.242888	-0.708566	-0.151099	0.283217	-0.711353	-0.374420	0.083451	-0.689721	-0.226397	0.031299	-0.731477	-0.194162	0.036990	-0.661886	-0.167896	0.025569	-0.657322	
885	4.4250	-0.000000	0.000000	-0.000000	-0.222610	1.321697	-0.717120	-0.223809	1.309280	-0.371213	-0.153280	1.274110	-0.544268	-0.145505	0.884380	-0.422801	-0.137406	0.884811	-0.651494	-0.205832	0.931325	-0.398189	-0.198493	0.923024	-0.685218	-0.306642	0.910451	-0.490529	-0.305811	0.907268	-0.595578	-0.305708	0.921484	-0.539082	-0.218243	0.682770	-0.373669	-0.190967	0.629876	-0.371295	-0.132462	0.657109	-0.361095	-0.153865	0.715218	-0.364383	-0.097801	0.399645	-0.397337	-0.088558	0.398587	-0.483135	-0.191040	0.331755	-0.361170	-0.216759	0.297240	-0.367092	-0.144984	0.304848	-0.383033	-0.165242	0.270183	-0.385656	-0.377215	0.097302	-0.437046	-0.240633	0.028412	-0.381294	-0.205814	0.037210	-0.453975	-0.178206	0.027875	-0.449680	-0.194473	0.672028	-0.718842	-0.161644	0.619799	-0.717108	-0.104459	0.649372	-0.713152	-0.128674	0.704955	-0.714470	-0.086549	0.398942	-0.690187	-0.086147	0.400888	-0.603000	-0.195980	0.300677	-0.727752	-0.219975	0.268239	-0.728252	-0.168472	0.238370	-0.708036	-0.149839	0.278478	-0.710861	-0.375730	0.080252	-0.688218	-0.227067	0.030977	-0.731455	-0.194203	0.036949	-0.661917	-0.167777	0.025604	-0.657434	
